<svg xmlns="http://www.w3.org/2000/svg" viewBox="-224 -107 1024 1024"><g fill="none" fill-rule="evenodd"><path fill="#E040FB" d="M569.809 581.27C542.338 711.922 426.595 810 288 810 149.406 810 33.663 711.923 6.193 581.27c30.76 48.477 145.262 84.483 281.808 84.483 136.544 0 251.046-36.006 281.808-84.484"/><path fill="#8A40FB" d="M547.543 408.662c-5.482 52.872-119.586 95.091-259.543 95.091s-254.06-42.22-259.543-95.091C10.9 450.77 0 489.406 0 520.397c0 60.668 128.942 109.85 288 109.85s288-49.182 288-109.85c0-30.99-10.899-69.626-28.457-111.735"/><path fill="#5A40FB" d="M528.558 376.484c0 50.674-107.712 91.763-240.59 91.763-132.88 0-240.592-41.089-240.592-91.763 0-5.981 1.075-10.963 4.354-17.476 14.643-29.072 31.137-58.631 48.439-87.67 1.717 39.003 85.148 70.415 187.798 70.415s186.07-31.412 187.81-70.403c17.29 29.038 33.784 58.597 48.428 87.658 3.278 6.513 4.353 11.495 4.353 17.476"/><path fill="#407EFB" d="M453.988 242.933c0 34.963-74.315 63.313-165.988 63.313-45.835 0-87.33-7.09-117.371-18.54-30.04-11.463-48.617-27.286-48.617-44.773 0-5.414 1.828-10.463 5.14-15.69 19.23-30.347 38.537-59.274 56.77-85.693 3.632 20.727 48.85 37.094 104.078 37.094 55.242 0 100.458-16.378 104.079-37.105 18.232 26.42 37.54 55.346 56.769 85.705 3.313 5.226 5.14 10.275 5.14 15.69"/><path fill="#40C4FF" d="M288 0s34.154 43.089 77.856 104.274c1.711 2.395 2.823 5.289 2.823 8.09 0 16.995-36.12 30.773-80.679 30.773-44.558 0-80.678-13.778-80.678-30.772 0-2.802 1.112-5.696 2.823-8.091C253.847 43.089 288 0 288 0"/></g></svg>